<svg xmlns="http://www.w3.org/2000/svg" width="64" height="64"><path d="M24.406 47.492c-.465-.445-.855-.828-1.207-1.281q-.673-.861-1.234-1.77c-.98-1.578-1.895-3.242-2.57-4.941-.598-1.5-.786-3.14-.75-4.773.05-2.489.84-4.86 2.265-6.899.395-.566.77-1.07 1.23-1.617a563 563 0 0 0 4.286-5.191c.273-.336.64-.813 1.11-1.426a28 28 0 0 0 2.01-3.04q1.566-2.746 2.134-5.64c.164-.832.25-1.75.261-2.766a14 14 0 0 0-.328-3.28 10.2 10.2 0 0 0-1.32-3.204q-.128-.204.055-.05c.547.464 1.039.929 1.797 1.624a23.6 23.6 0 0 1 2.222 2.293q2.882 3.459 3.696 7.938.047.276.113.793c.07.59.129 1.035.23 1.625.082.465.125.742.133.84q.116 1.336.027 2.668-.04.605-.144 1.175a15.6 15.6 0 0 1-2.48 6.035 30 30 0 0 1-2.442 3.133c-1.191 1.336-1.98 2.239-2.879 3.23a162 162 0 0 0-3.144 3.548q-.547.638-1.356 1.722a17 17 0 0 0-1.555 2.504 10 10 0 0 0-.789 2.16 6 6 0 0 0-.172 1.172q-.058 1.33.48 2.625c.09.215.208.477.345.774.027.05.015.058-.024.02M42.332 24.031c.637.66 1.012 1.38 1.488 2.29q.281.526.52 1.066c.594 1.332 1.113 2.601 1.48 3.953q.37 1.365.426 2.812c.012.317.02.711.016 1.176q-.001.61-.055 1.168c-.195 1.953-.75 3.809-1.742 5.48a19 19 0 0 1-2.258 3.032 52 52 0 0 1-2.074 2.133q-1.219 1.19-2.992 2.87c-.946.895-1.914 1.887-2.73 2.946a12.6 12.6 0 0 0-1.38 2.238 10 10 0 0 0-.691 1.887 8.7 8.7 0 0 0-.254 2.504q.047 1.125.422 2.168c.027.078.012.086-.047.035a21.7 21.7 0 0 1-2.684-2.89c-1.39-1.79-2.261-4.024-2.332-6.29q-.03-1.043.024-2.238c.05-1.117.234-2.187.554-3.223.18-.57.418-1.199.723-1.875q.235-.527.547-1.054c1.078-1.828 2.375-3.442 3.871-5.067a163 163 0 0 1 1.973-2.09q.976-1.02 2.375-2.542a25 25 0 0 0 2.824-3.696c.477-.758.875-1.539 1.207-2.347a11 11 0 0 0 .598-2.079c.14-.718.168-1.558.172-2.359q0-.028.019-.008m0 0" style="stroke:none;fill-rule:nonzero;fill:#000;fill-opacity:1"/></svg>