<svg xmlns="http://www.w3.org/2000/svg" width="256" height="256" style="shape-rendering:geometricPrecision;text-rendering:geometricPrecision;image-rendering:optimizeQuality;fill-rule:evenodd;clip-rule:evenodd"><path fill="#e06696" d="M128.5 12.5q-1.496-.045-2 1.5a40 40 0 0 1 4 10.5q.13 4.647-1.5 1-2.082 7.308-1.5 15l-2 3q4.118-19.75-6-37 .752-1.532 2-.5a24.1 24.1 0 0 1 7 6.5" style="opacity:1"/><path fill="#ec449d" d="M128.5 12.5q5.601 4.096 9 10 .822 2.84 3 5-2.71-.266-6 1-1.329 1.237-1 3a60 60 0 0 0-3-7 40 40 0 0 0-4-10.5q.504-1.545 2-1.5" style="opacity:1"/><path fill="#d03592" d="M137.5 22.5q4.457 2.915 6 8-1.561 7.535-9 5-1.401-1.602-1-4-.329-1.763 1-3 3.29-1.266 6-1-2.178-2.16-3-5" style="opacity:1"/><path fill="#f65f95" d="M130.5 24.5a60 60 0 0 1 3 7q-.401 2.398 1 4v9q-1.528-3.01-5-4-1.724 3.637-2 0-.582-7.692 1.5-15 1.63 3.647 1.5-1" style="opacity:1"/><path fill="#bd2b8d" d="M143.5 30.5q2.761 3.523 4 8a9.1 9.1 0 0 0 1 5q-.656 1.509-2 0-1.197.686-1 2-4.517-1.94-8.5-3-2.062 3.655-1.5 8v4q0 1-1 1v-20q7.439 2.535 9-5" style="opacity:1"/><path fill="#ae2288" d="M145.5 45.5q2.405 1.645 4.5 4 1.171 2.166-.5 4-5.632-1.369-10-5-1.683 1.695-4 2-.562-4.345 1.5-8 3.983 1.06 8.5 3" style="opacity:1"/><path fill="#ec508b" d="M127.5 40.5q.276 3.637 2 0 3.472.99 5 4v9q-5.176-.726-10 0v-4a19.2 19.2 0 0 1 1-6z" style="opacity:1"/><path fill="#a52085" d="M147.5 38.5q4.575 8.79 5 19v2a31 31 0 0 0-2 2q-5.065-3-10-6a7.3 7.3 0 0 0-3 2q-1.509-.657 0-2-.686-1.195-2-1v-4q2.317-.305 4-2 4.368 3.631 10 5 1.671-1.834.5-4-2.095-2.355-4.5-4-.197-1.314 1-2 1.344 1.509 2 0a9.1 9.1 0 0 1-1-5" style="opacity:1"/><path fill="#df4386" d="M134.5 53.5v2a43.2 43.2 0 0 1-2 11q-2.375.1-5-1-1.356-1.064-1-3h-3q-.13-4.647 1.5-1a15.3 15.3 0 0 1 4.5-1.5q-1.238-2.532-3-.5a10.3 10.3 0 0 1-1.5-4l-1 1q-.705-1.615.5-3 4.824-.726 10 0" style="opacity:1"/><path fill="#d84182" d="M124.5 49.5v4q-1.205 1.385-.5 3l1-1a10.3 10.3 0 0 0 1.5 4q1.762-2.032 3 .5a15.3 15.3 0 0 0-4.5 1.5q-1.63-3.647-1.5 1h3q-.356 1.936 1 3-2.799 2.595-6 2.5l3 3q-1.007 1.48 0 3.5-1.875-.116-2.5-2l-1 3q-2.819-3.04-3.5-7 3.213-4.95 4-11 .944-4.346 3-8" style="opacity:1"/><path fill="#9e1583" d="M135.5 54.5q1.314-.195 2 1-1.509 1.343 0 2a7.3 7.3 0 0 1 3-2q4.935 3 10 6a31 31 0 0 1 2-2q.354 4.663-1 9-1.893-3.855-4 0l-6-3q-1.817 1.335-4 0-3.792 1.003 0 2.5-2.163.565-3 2.5a6.54 6.54 0 0 0-3 3h-1l2-7a43.2 43.2 0 0 0 2-11q1 0 1-1" style="opacity:1"/><path fill="#d83c82" d="M127.5 65.5q2.625 1.1 5 1l-2 7-2 4a12.1 12.1 0 0 1-4-3q-1.007-2.02 0-3.5l-3-3q3.201.095 6-2.5" style="opacity:1"/><path fill="#970e7f" d="M151.5 68.5q.561 6.22-3 11-2.404 1.765-4-.5 1.526-1.574.5-3.5a18 18 0 0 1-3.5 2 66.4 66.4 0 0 0-7-7q.837-1.935 3-2.5-3.792-1.497 0-2.5 2.183 1.335 4 0l6 3q2.107-3.855 4 0" style="opacity:1"/><path fill="#d74186" d="M117.5 68.5q.681 3.96 3.5 7l1-3q.625 1.884 2.5 2a12.1 12.1 0 0 0 4 3q-1.144 2.802-3 5-5.638-.52-11-4 .255-1.983-1-3.5 1.603-3.657 4-6.5" style="opacity:1"/><path fill="#940f7f" d="M134.5 70.5a66.4 66.4 0 0 1 7 7 18 18 0 0 0 3.5-2q1.026 1.926-.5 3.5 1.596 2.265 4 .5a55 55 0 0 1-4 9h-1q-1.064-1.356-3-1 .939-5.813-5-5.5 2.858-1.24 1-3.5a7.25 7.25 0 0 1-2.5-2q-4.665 1.76-.5-1.5-.816-1.076-2-1.5a6.54 6.54 0 0 1 3-3" style="opacity:1"/><path fill="#d14689" d="M121.5 57.5q-.787 6.05-4 11-2.397 2.843-4 6.5 1.255 1.517 1 3.5 5.362 3.48 11 4v2a10.2 10.2 0 0 0-3 3q-5.163-3.572-11-2 .745-3.145 1-5.5-1.373-.417-2-1.5a16.3 16.3 0 0 0 2-5 13505 13505 0 0 1 9-16" style="opacity:1"/><path fill="#991785" d="M130.5 73.5h1q1.184.424 2 1.5-4.165 3.26.5 1.5a7.25 7.25 0 0 0 2.5 2q1.858 2.26-1 3.5 5.939-.313 5 5.5 1.936-.356 3 1-1.415 3.915-5 6-4.946.257-1-2a199 199 0 0 1-9-5.5 11.3 11.3 0 0 1-1.5-3.5q-.575.835-1.5 1v-2q1.856-2.198 3-5z" style="opacity:1"/><path fill="#441d5c" d="M152.5 57.5q2.898 11.645 1.5 24-.747 5.987-3.5 11 .13-4.647-1.5-1-3.763-.91-4.5-3a55 55 0 0 0 4-9q3.561-4.78 3-11 1.354-4.337 1-9z" style="opacity:.993"/><path fill="#d84c92" d="M110.5 78.5q.627 1.083 2 1.5-.255 2.355-1 5.5 5.837-1.572 11 2-.648 1.815-2 3-2.276.015-3.5 2-5.105-3.301-10.5-3 2.34-2.445-1-3.5 1.66-4.392 5-7.5" style="opacity:1"/><path fill="#9e208d" d="m138.5 94.5-2 3h-1a2960 2960 0 0 0-17-4l2-3q1.352-1.185 2-3a10.2 10.2 0 0 1 3-3q.925-.165 1.5-1a11.3 11.3 0 0 0 1.5 3.5 199 199 0 0 0 9 5.5q-3.946 2.257 1 2" style="opacity:1"/><path fill="#432267" d="M143.5 88.5h1q.737 2.09 4.5 3 1.63-3.647 1.5 1 .356 1.936-1 3-.925-.165-1.5-1l-1 4a4.46 4.46 0 0 0-1.5-2q-4.558.706-9 1l2-3q3.585-2.085 5-6" style="opacity:.99"/><path fill="#d85299" d="m120.5 90.5-2 3-3 4h-1a56.5 56.5 0 0 1-10-3q-1.985-3.53 2-5 5.395-.301 10.5 3 1.224-1.985 3.5-2" style="opacity:1"/><path fill="#d4579d" d="M112.5 73.5a16.3 16.3 0 0 1-2 5q-3.34 3.108-5 7.5 3.34 1.055 1 3.5-3.985 1.47-2 5a56.5 56.5 0 0 0 10 3l-7 8h-1a27.6 27.6 0 0 1-1.5-5l-1 1q-3.084-1.625-4-5-1.005 1.128-2.5 1 1.033-1.81.5-4a80 80 0 0 0 6.5-9 34.3 34.3 0 0 1 8-11" style="opacity:1"/><path fill="#9f2895" d="M118.5 93.5a2960 2960 0 0 1 17 4l-2 3h-1a6.85 6.85 0 0 0-4 1q-5.985-3.502-13-4z" style="opacity:1"/><path fill="#3f286a" d="M149.5 95.5q-1.992 6.998-7 12a105 105 0 0 1-5.5-6q-1.97 1.18-3.5-1l2-3h1a103 103 0 0 0 9-1 4.46 4.46 0 0 1 1.5 2l1-4q.575.835 1.5 1" style="opacity:.999"/><path fill="#d561a5" d="M106.5 105.5a6.55 6.55 0 0 1-3 3q-1.223-2.006-3.5-3-6.074 2.588-5-5a10.5 10.5 0 0 0 2.5-3q1.495.128 2.5-1 .916 3.375 4 5l1-1a27.6 27.6 0 0 0 1.5 5" style="opacity:1"/><path fill="#9e309c" d="M114.5 97.5h1q7.015.498 13 4a6.85 6.85 0 0 1 4-1 25.9 25.9 0 0 1-9 8 82 82 0 0 0-13.5-4q-1.006 1.128-2.5 1z" style="opacity:1"/><path fill="#ce66aa" d="M104.5 84.5a80 80 0 0 1-6.5 9q.533 2.19-.5 4a10.5 10.5 0 0 1-2.5 3q-1.074 7.588 5 5 2.277.994 3.5 3a10.2 10.2 0 0 0-3 3 18.9 18.9 0 0 0-5 3q-2.42-.666-3.5-3-2.23 1.862-2.5-1.5a12.8 12.8 0 0 1 2-5.5 3.65 3.65 0 0 0-1-1.5 52 52 0 0 0 5-7.5 37.4 37.4 0 0 1 9-11" style="opacity:1"/><path fill="#3f2d75" d="M132.5 100.5h1q1.53 2.18 3.5 1a105 105 0 0 0 5.5 6 26.2 26.2 0 0 1-5 7q.197-1.314-1-2-7.371-2.982-15-1l2-3a25.9 25.9 0 0 0 9-8" style="opacity:.994"/><path fill="#c66db0" d="M95.5 95.5a52 52 0 0 1-5 7.5q.685.621 1 1.5a12.8 12.8 0 0 0-2 5.5q.27 3.362 2.5 1.5 1.08 2.334 3.5 3v1a18.9 18.9 0 0 0-5 3q-3.275-2.025-5-5.5-.327-4.25 2-8.5a26.6 26.6 0 0 1 8-9" style="opacity:1"/><path fill="#9b3faa" d="m123.5 108.5-2 3a5.73 5.73 0 0 0-3 1 47.1 47.1 0 0 1-12.5-2 48 48 0 0 1-5.5 1 10.2 10.2 0 0 1 3-3 6.55 6.55 0 0 0 3-3h1q1.494.128 2.5-1a82 82 0 0 1 13.5 4" style="opacity:1"/><path fill="#b44589" d="M170.5 96.5a70.3 70.3 0 0 1 10 20q-1.875-.116-2.5-2-1.745 2.678-2 6-.297-2.823-1.5-5a95 95 0 0 0-5-18q.186-.91 1-1" style="opacity:1"/><path fill="#412569" d="M170.5 96.5q-.814.09-1 1a95 95 0 0 1 5 18v10q-1.857 2.571-2 6-3.132 2.754-4 7l-2 1a1271 1271 0 0 0 0-30 83 83 0 0 0 1-14q1.936-.356 3 1" style="opacity:1"/><path fill="#954bb6" d="m118.5 112.5-2 3a11.74 11.74 0 0 0-5 3q-7.322-2.284-16-3v-1a18.9 18.9 0 0 1 5-3 48 48 0 0 0 5.5-1 47.1 47.1 0 0 0 12.5 2" style="opacity:1"/><path fill="#3e3782" d="M137.5 114.5a2464 2464 0 0 0-6 7q-.18-1.63-2-2a134 134 0 0 1-13-4l2-3a5.73 5.73 0 0 1 3-1q7.629-1.982 15 1 1.197.686 1 2" style="opacity:.988"/><path fill="#ba77bb" d="M87.5 104.5q-2.327 4.25-2 8.5 1.725 3.475 5 5.5v1q-4 3-7 7a10.2 10.2 0 0 1-3 3q-2.314-.962-4-3a43.8 43.8 0 0 0 4-12q2.343-5.838 7-10" style="opacity:1"/><path fill="#8e59c1" d="M95.5 115.5q8.678.716 16 3a28 28 0 0 0-5 5h-1a42.4 42.4 0 0 1-15-4v-1a18.9 18.9 0 0 1 5-3" style="opacity:1"/><path fill="#b64291" d="M180.5 116.5a21.2 21.2 0 0 1 2 7 18.5 18.5 0 0 1-.5 6q-3.5-2-7 0a8.4 8.4 0 0 1-.5-4v-10q1.203 2.177 1.5 5 .255-3.322 2-6 .625 1.884 2.5 2" style="opacity:.999"/><path fill="#3f408e" d="M116.5 115.5a134 134 0 0 0 13 4q1.82.37 2 2a98 98 0 0 0-25 2 28 28 0 0 1 5-5 11.74 11.74 0 0 1 5-3" style="opacity:1"/><path fill="#3b2b6e" d="M166.5 109.5q.177 14.911 0 30a21.6 21.6 0 0 1-4 5 27.7 27.7 0 0 1-2-4.5q.877-6.328 1-12.5-.084-3.72 1-8 1.231-5.44 4-10" style="opacity:1"/><path fill="#8567cc" d="M90.5 119.5a42.4 42.4 0 0 0 15 4l-2 3-4 3q-8.061.707-16-3 3-4 7-7" style="opacity:1"/><path fill="#3b4b96" d="M131.5 121.5a6000 6000 0 0 0-8 9v-3a554 554 0 0 0-20-1l2-3h1a98 98 0 0 1 25-2" style="opacity:.999"/><path fill="#342f70" d="M161.5 127.5a106 106 0 0 1-1 12.5 27.7 27.7 0 0 0 2 4.5l-3 4a11.74 11.74 0 0 0-5 3q-.284-9.048 1.5-19l4-6q.575.834 1.5 1" style="opacity:1"/><path fill="#9e7fbd" d="M80.5 114.5a43.8 43.8 0 0 1-4 12q1.686 2.038 4 3a5.73 5.73 0 0 0-1 3q-2.26 2.522-3 6-2.267 4.567-2 10-3.774-18.135 6-34" style="opacity:1"/><path fill="#7c75d7" d="M83.5 126.5q7.939 3.707 16 3v1q-2.11.71-2 3h-1q-.925-.166-1.5-1-.78 1.523-2.5 2a55.2 55.2 0 0 0-13-2 5.73 5.73 0 0 1 1-3 10.2 10.2 0 0 0 3-3" style="opacity:1"/><path fill="#b1479b" d="M182.5 123.5q2.373 5.064 2 11l-2 7a18.5 18.5 0 0 0-.5-6l-1 1q-4.791-1.82-8.5-5 .143-3.429 2-6a8.4 8.4 0 0 0 .5 4q3.5-2 7 0 .743-2.96.5-6" style="opacity:1"/><path fill="#3958a1" d="M103.5 126.5q10.011.32 20 1v3q-.5 1.5-2 2-10.372-.398-22-2v-1z" style="opacity:1"/><path fill="#3664a8" d="M99.5 130.5q11.628 1.602 22 2a1527 1527 0 0 0-5 6q-6.34-2.67-14-2.5-2.987-.56-5-2.5-.11-2.29 2-3" style="opacity:1"/><path fill="#313575" d="M162.5 119.5q-1.084 4.28-1 8-.925-.166-1.5-1l-4 6q-1.784 9.952-1.5 19l-1 2q-2.343.35-4 2-.027-8.004-3-15a404 404 0 0 0 16-21" style="opacity:1"/><path fill="#7485e0" d="M79.5 132.5q6.609.22 13 2 1.72-.477 2.5-2 .575.834 1.5 1a41 41 0 0 0-5 7q0 1-1 1-7.173.514-14-3 .74-3.478 3-6" style="opacity:1"/><path fill="#3473b3" d="M96.5 133.5h1q2.013 1.94 5 2.5 7.66-.17 14 2.5-2 3-5 5a5167 5167 0 0 0-20-3 41 41 0 0 1 5-7" style="opacity:1"/><path fill="#a750a7" d="M172.5 131.5q3.709 3.18 8.5 5l1-1q.743 2.96.5 6 .257 1.487-1 2-4.51-.492-10-1.5a14.7 14.7 0 0 1-3-3.5q.868-4.246 4-7" style="opacity:1"/><path fill="#2e85bc" d="M91.5 140.5a5167 5167 0 0 1 20 3 36 36 0 0 1-6 8v-3a6.85 6.85 0 0 0-4 1 46.8 46.8 0 0 0-13-3 16.3 16.3 0 0 0 2-5q1 0 1-1" style="opacity:1"/><path fill="#9a5fb6" d="M168.5 138.5a14.7 14.7 0 0 0 3 3.5q5.49 1.008 10 1.5-.94 5.88-5 10-.436-1.724-2.5-2-7.779-2.037-14.5-3l3-4a21.6 21.6 0 0 0 4-5z" style="opacity:1"/><path fill="#27407b" d="M146.5 140.5q2.973 6.996 3 15v1q-3.381.936-5 4a5.73 5.73 0 0 0-3 1q-1.78-4.264 0-9-.091-3.23-3-4 3.5-4.5 8-8" style="opacity:1"/><path fill="#6c9be7" d="M76.5 138.5q6.827 3.514 14 3a16.3 16.3 0 0 1-2 5q0 1-1 1a62 62 0 0 1-13 1q-.267-5.433 2-10" style="opacity:1"/><path fill="#dd749d" d="M184.5 134.5q1.765 12.673-3 25-4.328.46-8-1v-1q2.211-1.405 3-4 4.06-4.12 5-10 1.257-.513 1-2z" style="opacity:1"/><path fill="#68abea" d="M87.5 147.5a54 54 0 0 0-2 7q-3.97.86-8 2 2.17 3.177 2 7-4.562-6.684-5-15 6.435.195 13-1" style="opacity:1"/><path fill="#25a6cd" d="M88.5 146.5a46.8 46.8 0 0 1 13 3 6.85 6.85 0 0 1 4-1v3a309 309 0 0 1-3 4q-8.514-1.868-17-1a54 54 0 0 1 2-7q1 0 1-1" style="opacity:1"/><path fill="#8d72c2" d="M159.5 148.5q6.721.963 14.5 3 2.064.276 2.5 2-.789 2.595-3 4a322 322 0 0 1-20-4l1-2a11.74 11.74 0 0 1 5-3" style="opacity:1"/><path fill="#8581ca" d="M153.5 153.5a322 322 0 0 0 20 4v1l-3 2q-10.803-2.464-21-4v-1q1.657-1.65 4-2" style="opacity:1"/><path fill="#20c3d8" d="M102.5 155.5a2107 2107 0 0 1-5 8q.045-1.496-1.5-2a33.7 33.7 0 0 0-10.5-2v-5q8.486-.868 17 1" style="opacity:1"/><path fill="#7c94d3" d="M149.5 156.5q10.197 1.536 21 4l-4 5-3 2q-.679-1.437-2-2.5-8.863-1.589-17-4.5 1.619-3.064 5-4" style="opacity:1"/><path fill="#214c82" d="M138.5 148.5q2.909.77 3 4-1.78 4.736 0 9l-4 4a19 19 0 0 0-5 3 64.7 64.7 0 0 0-1-12q2.425-4.926 7-8" style="opacity:1"/><path fill="#42d5e4" d="M85.5 159.5a33.7 33.7 0 0 1 10.5 2q1.545.504 1.5 2a132 132 0 0 0-3 13.5 165 165 0 0 0 3.5 13.5 14.5 14.5 0 0 1-5-4 31.5 31.5 0 0 1-5.5-9 60.7 60.7 0 0 1-2-18" style="opacity:1"/><path fill="#64c5f2" d="M85.5 154.5v5a60.7 60.7 0 0 0 2 18q-5.511-6.01-8-14 .17-3.823-2-7 4.03-1.14 8-2" style="opacity:1"/><path fill="#1d5989" d="M131.5 156.5a64.7 64.7 0 0 1 1 12l-1 2-8 6q.016-2.276 2-3.5-.826-2.097-1-4a30.1 30.1 0 0 0 3-8.5q1.5-2.5 4-4" style="opacity:1"/><path fill="#6ea5dc" d="M144.5 160.5q8.137 2.911 17 4.5 1.321 1.063 2 2.5l-6 5q-.166-.925-1-1.5a161 161 0 0 0-19-5.5l4-4a5.73 5.73 0 0 1 3-1" style="opacity:1"/><path fill="#cb92b6" d="M173.5 158.5q3.672 1.46 8 1-1.863 6.233-6 11-1.356-1.064-1-3-4.58.584-8-2l4-5z" style="opacity:1"/><path fill="#29ecf4" d="M86.5 162.5q3.807 3.564 8.5 3a117.5 117.5 0 0 0-2 16q-6.103-8.56-6.5-19" style="opacity:1"/><path fill="#62b4e2" d="M137.5 165.5a161 161 0 0 1 19 5.5q.834.575 1 1.5a25.7 25.7 0 0 0-6 6h-1q-8.161-6.822-19-8l1-2a19 19 0 0 1 5-3" style="opacity:1"/><path fill="#b8a9c9" d="M166.5 165.5q3.42 2.584 8 2-.356 1.936 1 3a24.2 24.2 0 0 1-7 9q.129-1.494-1-2.5a26.7 26.7 0 0 1-6.5-1.5q-3.481 1.291-3.5-3l6-5z" style="opacity:1"/><path fill="#53c2e8" d="M131.5 170.5q10.839 1.178 19 8l-6 5q-4.82-4-11-6.5a6.98 6.98 0 0 1-2.5-3.5 4.93 4.93 0 0 0-.5 3q-1.936-.356-3 1h-4v-1z" style="opacity:1"/><path fill="#206894" d="M127.5 160.5a30.1 30.1 0 0 1-3 8.5q.174 1.903 1 4-1.984 1.224-2 3.5v1a45.6 45.6 0 0 0-7 9q-1.65 1.657-2 4-3.622 4.26-4 10l-2 3q.986-25.455 19-43" style="opacity:.995"/><path fill="#4dcae9" d="m144.5 183.5-1 2-3 2q-1.332-5.23-7-4 .261-5.018-4-3.5-1.321-1.062-2-2.5 1.064-1.356 3-1a4.93 4.93 0 0 1 .5-3 6.98 6.98 0 0 0 2.5 3.5q6.18 2.5 11 6.5" style="opacity:1"/><path fill="#aabbd9" d="M157.5 172.5q.019 4.291 3.5 3a26.7 26.7 0 0 0 6.5 1.5q1.129 1.006 1 2.5-2 3-5 5l-12-6a25.7 25.7 0 0 1 6-6" style="opacity:1"/><path fill="#48d2ec" d="M123.5 177.5h4q.679 1.438 2 2.5 4.261-1.518 4 3.5 5.668-1.23 7 4a18.3 18.3 0 0 1-4 6q-1 0-1 1-.729-3.678 0-8-2.466.32-4.5-1a22.7 22.7 0 0 1-5 2 43 43 0 0 0-5.5-3q-.91.186-1 1a5.73 5.73 0 0 1-3 1 45.6 45.6 0 0 1 7-9" style="opacity:1"/><path fill="#97cde4" d="M150.5 178.5h1l12 6a25.7 25.7 0 0 1-6 6q-7.74-.348-14-5l1-2z" style="opacity:1"/><path fill="#41ddef" d="M119.5 185.5a18.5 18.5 0 0 0 2 3.5q4.677 2.591 10 2.5 1.055 3.67 1 7a5.73 5.73 0 0 1-1 3q-1.76 1.52-2 4a174 174 0 0 1-3-4q1.712-1.388 0-2.5a25.9 25.9 0 0 0-9-3.5q.34-3.649-3-5 .35-2.343 2-4a5.73 5.73 0 0 0 3-1" style="opacity:1"/><path fill="#45d7ed" d="M135.5 194.5a309 309 0 0 1-3 4q.055-3.33-1-7-5.323.091-10-2.5a18.5 18.5 0 0 1-2-3.5q.09-.814 1-1 2.894 1.32 5.5 3a22.7 22.7 0 0 0 5-2q2.034 1.32 4.5 1-.729 4.322 0 8" style="opacity:1"/><path fill="#8bdbea" d="M143.5 185.5q6.26 4.652 14 5a57.5 57.5 0 0 1-9 9q-.465-6.007-6-3-3.939-.183-6-3a18.3 18.3 0 0 0 4-6z" style="opacity:1"/><path fill="#40e2f1" d="M114.5 190.5q3.34 1.351 3 5a25.9 25.9 0 0 1 9 3.5q1.712 1.112 0 2.5a174 174 0 0 0 3 4q-1.844 2.695-2 6a95.5 95.5 0 0 1-8.5-8l-1 1a2464 2464 0 0 0-6-7q-.348 1.856-1.5 3 .378-5.74 4-10" style="opacity:1"/><path fill="#42e5f0" d="m127.5 211.5-1 4q-1.356 1.063-1 3-1.185 1.663-1.5 4a168 168 0 0 1-1.5-8q-10.698.06-11.5-11-1 7.5 0 15a19.94 19.94 0 0 1 2.5 9q-5.92-11.099-5-24l2-3q1.152-1.144 1.5-3 3.043 3.538 6 7l1-1a95.5 95.5 0 0 0 8.5 8" style="opacity:1"/><path fill="#85e5ed" d="M136.5 193.5q2.061 2.817 6 3 5.535-3.007 6 3a25.7 25.7 0 0 1-6 6q.128-2.243-2-3-4.654.635-8.5 3a8.4 8.4 0 0 1-.5-4 5.73 5.73 0 0 0 1-3 309 309 0 0 0 3-4q0-1 1-1" style="opacity:1"/><path fill="#83eaee" d="M131.5 201.5a8.4 8.4 0 0 0 .5 4q3.846-2.365 8.5-3 2.128.757 2 3a3606 3606 0 0 0-9 12q.061-5.615-2-.5a29 29 0 0 0-4 1.5q-1.329-1.237-1-3l1-4q.156-3.305 2-6 .24-2.48 2-4" style="opacity:1"/><path fill="#4bf0f5" d="M125.5 218.5a144.5 144.5 0 0 0 1 22h-4a46.8 46.8 0 0 1-9-13 19.94 19.94 0 0 0-2.5-9q-1-7.5 0-15 .802 11.06 11.5 11 .65 3.999 1.5 8 .315-2.337 1.5-4" style="opacity:1"/><path fill="#83e8ec" d="M133.5 217.5q-7.557 14.397-3.5 30a25.1 25.1 0 0 1-7.5-7h4a144.5 144.5 0 0 1-1-22q-.356-1.937 1-3-.329 1.763 1 3a29 29 0 0 1 4-1.5q2.061-5.115 2 .5" style="opacity:1"/></svg>