<svg xmlns="http://www.w3.org/2000/svg" width="128" height="128" style="shape-rendering:geometricPrecision;text-rendering:geometricPrecision;image-rendering:optimizeQuality;fill-rule:evenodd;clip-rule:evenodd"><path fill="#090808" d="M77.5 33.5a97 97 0 0 0-2 6.5q.342.598 1 .5-1.288 9.576-7.5 17a210 210 0 0 0-19.5 23q-3.12 6.82-1.5 14Q29.015 76.14 41.5 53A127.3 127.3 0 0 0 61 26.5q3.63-11.923-1.5-23l1-1q15.46 11.514 17 31" style="opacity:.998"/><path fill="#666664" d="M77.5 33.5q.453 3.84-1 7-.658.098-1-.5a97 97 0 0 1 2-6.5" style="opacity:.192"/><path fill="#090909" d="M54.5 107.5q.658.098 1-.5a145 145 0 0 0-2-7.5 54.6 54.6 0 0 1 4-12.5A369 369 0 0 1 79 62.5a71.8 71.8 0 0 0 5.5-15q15.567 20.805.5 42l-17 17q-4.929 7.428-2.5 16-.752 1.532-2 .5-7.803-5.86-9-15.5" style="opacity:.997"/><path fill="#5f5f60" d="M53.5 99.5q1.065 3.59 2 7.5-.342.598-1 .5-1.46-3.672-1-8" style="opacity:.135"/></svg>