<svg xmlns="http://www.w3.org/2000/svg" width="32" height="32"><path d="M12.203 23.746a7 7 0 0 1-.605-.64q-.335-.434-.618-.883c-.488-.79-.945-1.625-1.285-2.473-.297-.75-.39-1.57-.375-2.387a6.24 6.24 0 0 1 1.133-3.449c.2-.285.387-.535.617-.809q1.07-1.277 2.14-2.597.208-.248.556-.711.573-.76 1.007-1.52a9.4 9.4 0 0 0 1.067-2.82q.122-.621.133-1.383a7 7 0 0 0-.168-1.64 5 5 0 0 0-.66-1.602q-.06-.105.027-.023c.273.23.52.46.902.808.43.399.801.778 1.11 1.149a8.44 8.44 0 0 1 1.847 3.968q.024.139.055.395c.039.297.066.52.117.816q.06.346.067.418.058.668.015 1.336-.022.3-.074.586a7.8 7.8 0 0 1-1.242 3.02 14.5 14.5 0 0 1-1.219 1.562c-.594.668-.992 1.121-1.441 1.617a91 91 0 0 0-1.57 1.774c-.184.21-.407.5-.68.863q-.451.604-.774 1.25-.264.528-.398 1.078a3.3 3.3 0 0 0-.086.586q-.029.668.242 1.313a7 7 0 0 0 .172.386q.018.042-.012.012M21.168 12.016c.316.332.504.687.742 1.144q.141.265.258.535c.297.664.559 1.297.742 1.973q.186.686.215 1.406.007.24.008.59a7 7 0 0 1-.031.586c-.094.977-.372 1.902-.872 2.738a9.3 9.3 0 0 1-1.128 1.516q-.462.51-1.036 1.066c-.406.399-.906.875-1.496 1.438-.472.445-.957.941-1.367 1.472a6 6 0 0 0-.687 1.118 5 5 0 0 0-.344.941 4.3 4.3 0 0 0-.129 1.254c.016.375.086.734.21 1.086q.02.054-.023.016-.725-.65-1.343-1.446c-.696-.894-1.13-2.012-1.164-3.144q-.018-.52.011-1.121a6.3 6.3 0 0 1 .278-1.61q.134-.427.363-.937.117-.264.27-.528c.543-.914 1.187-1.718 1.937-2.535q.317-.34.984-1.043.492-.511 1.188-1.27c.539-.585 1.008-1.198 1.414-1.847q.356-.568.602-1.176c.125-.3.222-.648.3-1.039.07-.36.082-.781.086-1.18 0-.007.004-.011.012-.003m0 0" style="stroke:none;fill-rule:nonzero;fill:#000;fill-opacity:1"/></svg>